<svg width="213" height="38" viewBox="0 0 213 38" fill="none" xmlns="http://www.w3.org/2000/svg">
<path d="M106.293 4.49501L108.92 13.9002C108.92 14.0385 108.92 14.0385 108.782 14.0385H108.16C108.091 14.0385 108.091 14.0385 108.021 13.9002L106.984 10.2349H102.074L101.037 13.9002C101.037 14.0385 100.967 14.0385 100.898 14.0385H100.276C100.138 14.0385 100.138 14.0385 100.138 13.9002L102.835 4.49501C103.25 2.97358 103.457 2.76611 104.494 2.76611C105.739 2.76611 105.878 2.97358 106.293 4.49501ZM103.665 4.70248L102.281 9.54339H106.777L105.463 4.70248C105.186 3.66514 105.117 3.52683 104.564 3.52683C104.01 3.52683 103.941 3.66514 103.665 4.70248Z" fill="#697A89"/>
<path d="M120.055 2.83545C120.124 2.83545 120.193 2.90461 120.193 2.97376V3.45785C120.193 3.52701 120.124 3.59617 120.055 3.59617H114.038V8.29876H119.501C119.57 8.29876 119.64 8.36792 119.64 8.43707V8.92117C119.64 8.99032 119.57 9.05947 119.501 9.05947H114.038V13.3471H120.055C120.124 13.3471 120.193 13.4163 120.193 13.4854V13.9695C120.193 14.0387 120.124 14.1079 120.055 14.1079H113.416C113.277 14.1079 113.208 14.0387 113.208 13.9004V3.11207C113.208 2.97376 113.277 2.90461 113.416 2.90461H120.055V2.83545Z" fill="#697A89"/>
<path d="M131.465 2.90469C131.534 2.90469 131.604 2.97384 131.604 3.043V3.38878C131.604 3.45793 131.534 3.52709 131.465 3.52709H128.146C126.486 3.52709 125.725 4.01118 125.725 5.18683V5.3943C125.725 6.29332 125.933 6.77741 127.039 7.2615L130.566 8.78293C132.019 9.40534 132.157 10.6501 132.157 11.3417V11.7566C132.157 14.1079 130.22 14.1771 128.492 14.1771C127.662 14.1771 125.794 14.1771 124.826 14.0388C124.757 14.0388 124.688 13.9696 124.688 13.9005V13.5547C124.688 13.4855 124.757 13.4164 124.826 13.4164H128.699C130.082 13.4164 131.327 13.2781 131.327 11.7566V11.4109C131.327 10.8576 131.258 9.95858 130.082 9.47449L126.417 7.95306C125.034 7.39982 124.826 6.56995 124.826 5.53261V5.25598C124.826 3.31962 126.209 2.83553 128.353 2.83553C129.252 2.76637 130.566 2.83553 131.465 2.90469Z" fill="#697A89"/>
<path d="M143.913 2.83545C143.982 2.83545 144.052 2.90461 144.052 2.97376V3.45785C144.052 3.52701 143.982 3.59617 143.913 3.59617H140.248V13.9695C140.248 14.0387 140.179 14.1079 140.11 14.1079H139.556C139.487 14.1079 139.418 14.0387 139.418 13.9695V3.59617H135.753C135.684 3.59617 135.615 3.52701 135.615 3.45785V2.97376C135.615 2.90461 135.684 2.83545 135.753 2.83545H143.913Z" fill="#697A89"/>
<path d="M156.984 2.83545C157.053 2.83545 157.122 2.90461 157.122 2.97376V13.9004C157.122 13.9695 157.053 14.0387 156.984 14.0387H156.431C156.361 14.0387 156.292 13.9695 156.292 13.9004V8.64454H149.169V13.9004C149.169 13.9695 149.1 14.0387 149.031 14.0387H148.478C148.408 14.0387 148.339 13.9695 148.339 13.9004V2.97376C148.339 2.90461 148.408 2.83545 148.478 2.83545H149.031C149.1 2.83545 149.169 2.90461 149.169 2.97376V7.88383H156.292V2.97376C156.292 2.90461 156.361 2.83545 156.431 2.83545H156.984Z" fill="#697A89"/>
<path d="M169.155 2.83545C169.224 2.83545 169.294 2.90461 169.294 2.97376V3.45785C169.294 3.52701 169.224 3.59617 169.155 3.59617H163.139V8.29876H168.602C168.671 8.29876 168.74 8.36792 168.74 8.43707V8.92117C168.74 8.99032 168.671 9.05947 168.602 9.05947H163.139V13.3471H169.155C169.224 13.3471 169.294 13.4163 169.294 13.4854V13.9695C169.294 14.0387 169.224 14.1079 169.155 14.1079H162.516C162.378 14.1079 162.309 14.0387 162.309 13.9004V3.11207C162.309 2.97376 162.378 2.90461 162.516 2.90461H169.155V2.83545Z" fill="#697A89"/>
<path d="M181.88 2.83545C181.949 2.83545 182.018 2.90461 182.018 2.97376V3.45785C182.018 3.52701 181.949 3.59617 181.88 3.59617H178.215V13.9695C178.215 14.0387 178.145 14.1079 178.076 14.1079H177.523C177.454 14.1079 177.385 14.0387 177.385 13.9695V3.59617H173.719C173.65 3.59617 173.581 3.52701 173.581 3.45785V2.97376C173.581 2.90461 173.65 2.83545 173.719 2.83545H181.88Z" fill="#697A89"/>
<path d="M187.067 2.83545C187.136 2.83545 187.205 2.90461 187.205 2.97376V13.9004C187.205 13.9695 187.136 14.0387 187.067 14.0387H186.513C186.444 14.0387 186.375 13.9695 186.375 13.9004V2.97376C186.375 2.90461 186.444 2.83545 186.513 2.83545H187.067Z" fill="#697A89"/>
<path d="M199.307 2.83531C199.376 2.83531 199.445 2.90447 199.445 2.97363V3.38856C199.445 3.45772 199.376 3.52687 199.307 3.52687H196.679C193.705 3.52687 193.152 4.70252 193.152 8.50609C193.152 12.3097 193.775 13.4162 196.679 13.4162H199.307C199.376 13.4162 199.445 13.4853 199.445 13.5545V13.9694C199.445 14.0386 199.376 14.1077 199.307 14.1077C198.546 14.1769 197.371 14.1769 196.679 14.1769C193.152 14.1769 192.322 12.8629 192.322 8.50609C192.322 4.14928 193.152 2.83531 196.679 2.83531C197.371 2.76616 198.546 2.76616 199.307 2.83531Z" fill="#697A89"/>
<path d="M210.787 2.90469C210.856 2.90469 210.925 2.97384 210.925 3.043V3.38878C210.925 3.45793 210.856 3.52709 210.787 3.52709H207.468C205.808 3.52709 205.047 4.01118 205.047 5.18683V5.3943C205.047 6.29332 205.255 6.77741 206.361 7.2615L209.888 8.78293C211.34 9.40534 211.479 10.6501 211.479 11.3417V11.7566C211.479 14.1079 209.542 14.1771 207.813 14.1771C206.983 14.1771 205.116 14.1771 204.148 14.0388C204.079 14.0388 204.01 13.9696 204.01 13.9005V13.5547C204.01 13.4855 204.079 13.4164 204.148 13.4164H208.021C209.404 13.4164 210.649 13.2781 210.649 11.7566V11.4109C210.649 10.8576 210.58 9.95858 209.404 9.47449L205.739 7.95306C204.356 7.39982 204.148 6.56995 204.148 5.53261V5.25598C204.148 3.31962 205.531 2.83553 207.675 2.83553C208.574 2.76637 209.888 2.83553 210.787 2.90469Z" fill="#697A89"/>
<path d="M212.793 18.1189H98.8929V18.7413H212.793V18.1189Z" fill="#A6AAA3"/>
<path d="M103.734 25.5878C103.803 25.5878 103.803 25.6569 103.803 25.6569V25.9336C103.803 26.0027 103.803 26.0027 103.734 26.0027H101.728C101.244 26.0027 100.553 26.141 100.553 26.7634V26.9709C100.553 27.455 100.691 27.7316 101.313 28.0082L103.042 28.6998C103.941 29.0456 104.08 29.5297 104.08 30.1521V30.2904C104.08 31.3969 103.457 31.6735 101.936 31.6735C101.382 31.6735 100.345 31.6735 99.9993 31.6043C99.9302 31.6043 99.9302 31.5352 99.9302 31.5352V31.2585C99.9302 31.1894 99.9993 31.1202 99.9993 31.1202H101.936C103.111 31.1202 103.526 30.9819 103.526 30.2904V30.1521C103.526 29.7371 103.388 29.4605 102.835 29.253L101.037 28.4923C100.207 28.1465 99.9993 27.6624 99.9993 26.9709V26.6943C99.9993 25.5186 101.175 25.4495 101.936 25.4495C102.281 25.5186 103.25 25.5186 103.734 25.5878Z" fill="#697A89"/>
<path d="M106.016 23.2363C106.085 23.2363 106.154 23.3055 106.154 23.3746V27.8006L108.367 25.6568C108.436 25.5876 108.506 25.5876 108.575 25.5876H109.128C109.266 25.5876 109.266 25.6568 109.197 25.7259L106.846 27.9389L109.889 31.4659C109.958 31.535 109.958 31.6042 109.75 31.6042H109.266C109.197 31.6042 109.128 31.6042 109.059 31.535L106.085 28.0081V31.4659C106.085 31.535 106.016 31.6042 105.947 31.6042H105.532C105.463 31.6042 105.463 31.6042 105.463 31.4659V23.3746C105.463 23.3055 105.463 23.2363 105.532 23.2363H106.016Z" fill="#697A89"/>
<path d="M111.479 23.9972C111.479 24.2738 111.341 24.4121 111.064 24.4121C110.788 24.4121 110.649 24.2738 110.649 23.9972C110.649 23.7206 110.788 23.5823 111.064 23.5823C111.341 23.5823 111.479 23.7206 111.479 23.9972ZM111.272 25.5878C111.341 25.5878 111.341 25.657 111.341 25.657V31.5352C111.341 31.6044 111.341 31.6044 111.272 31.6044H110.857C110.788 31.6044 110.788 31.6044 110.788 31.5352V25.657C110.788 25.5878 110.788 25.5878 110.857 25.5878H111.272Z" fill="#697A89"/>
<path d="M117.98 28.0082V31.5351C117.98 31.6043 117.911 31.6043 117.842 31.6043H117.427C117.357 31.6043 117.357 31.6043 117.357 31.5351V28.0082C117.357 26.2101 116.873 26.0718 115.698 26.0718H113.831V31.6043C113.831 31.6734 113.83 31.6734 113.761 31.6734H113.346C113.277 31.6734 113.277 31.6734 113.277 31.6043V25.7952C113.277 25.726 113.277 25.726 113.416 25.6569C114.245 25.5186 115.075 25.5186 115.698 25.5186C117.288 25.5186 117.98 25.7952 117.98 28.0082Z" fill="#697A89"/>
<path d="M126.348 25.5878C126.417 25.5878 126.417 25.6569 126.417 25.6569V25.9336C126.417 26.0027 126.348 26.0027 126.279 26.0027H124.619C123.097 26.0027 122.821 26.556 122.821 28.5615C122.821 30.6362 123.097 31.1202 124.619 31.1202H126.279C126.348 31.1202 126.417 31.1894 126.417 31.2585V31.5352C126.417 31.6043 126.417 31.6043 126.348 31.6043C125.864 31.6735 125.034 31.6735 124.688 31.6735C122.682 31.6735 122.268 31.0511 122.268 28.5615C122.268 26.0719 122.752 25.4495 124.688 25.4495C125.034 25.5186 125.864 25.5186 126.348 25.5878Z" fill="#697A89"/>
<path d="M131.88 27.3165V31.3276C131.88 31.3967 131.88 31.535 131.673 31.6042C131.258 31.7425 130.082 31.8117 129.391 31.8117C127.869 31.8117 127.316 31.3967 127.316 30.0136C127.316 28.838 127.869 28.423 129.114 28.423H131.189V27.4548C131.189 26.4175 130.428 26.1409 129.321 26.1409H127.938C127.869 26.1409 127.869 26.1409 127.869 26.0717V25.7951C127.869 25.7259 127.869 25.7259 127.938 25.6568C128.492 25.5876 128.976 25.5876 129.391 25.5876C130.843 25.5185 131.88 25.8643 131.88 27.3165ZM129.183 28.9071C128.284 28.9071 127.938 29.2529 127.938 30.0136C127.938 30.9126 128.284 31.2584 129.46 31.2584C129.806 31.2584 130.774 31.2584 131.258 31.1201V28.9071H129.183Z" fill="#697A89"/>
<path d="M136.168 25.5876C136.237 25.5876 136.237 25.6568 136.237 25.7259V26.0026C136.237 26.0717 136.168 26.1409 136.099 26.0717H135.061C134.646 26.0717 134.093 26.1409 134.093 26.7633V31.6042C134.093 31.6733 134.093 31.6733 134.024 31.6733H133.609C133.54 31.6733 133.54 31.6733 133.54 31.6042V26.6941C133.54 25.5876 134.646 25.5876 134.992 25.5876C135.338 25.5185 135.96 25.5876 136.168 25.5876Z" fill="#697A89"/>
<path d="M141.839 28.3539V28.6997C141.839 28.838 141.839 28.9072 141.562 28.9072H137.689C137.689 30.7052 138.035 31.1893 139.487 31.1893H141.147C141.216 31.1893 141.285 31.2585 141.285 31.3276V31.6043C141.285 31.6734 141.285 31.6734 141.216 31.6734C140.732 31.7426 139.902 31.7426 139.487 31.7426C137.482 31.7426 137.067 31.1202 137.067 28.6306C137.067 26.141 137.482 25.5186 139.487 25.5186C141.424 25.5186 141.839 26.0718 141.839 28.3539ZM137.758 28.3539H141.285C141.285 26.4867 140.94 26.0718 139.557 26.0718C138.035 26.0718 137.758 26.5559 137.758 28.3539Z" fill="#697A89"/>
<path d="M150.137 23.2364C150.206 23.2364 150.206 23.2364 150.206 23.3055V23.6513C150.206 23.7205 150.137 23.7205 150.137 23.7205H148.823C147.509 23.7205 146.541 23.928 146.541 25.2419V25.5877C146.541 26.9017 147.302 27.1783 148.616 27.1783H151.59C151.659 27.1783 151.728 27.2474 151.728 27.3166V27.5241C151.728 27.5932 151.659 27.5932 151.59 27.5932L150.76 27.6624V30.4978C150.76 31.051 150.898 31.1202 151.52 31.1202H151.935C152.005 31.1202 152.074 31.1202 152.074 31.1893V31.4659C152.074 31.5351 152.074 31.5351 152.005 31.6042C151.797 31.6734 151.59 31.6734 151.451 31.6734C150.967 31.6734 150.621 31.6043 150.414 31.3276C149.93 31.6043 149.1 31.6734 148.685 31.6734C147.094 31.6734 145.988 31.3276 145.988 29.5296V29.253C145.988 28.2156 146.541 27.5932 147.302 27.3857C146.541 27.1783 145.988 26.5559 145.988 25.5185V25.2419C145.988 23.4439 147.164 23.1672 148.893 23.1672C149.169 23.2364 149.653 23.2364 150.137 23.2364ZM148.685 27.7315C147.371 27.7315 146.61 28.0773 146.61 29.3221V29.5987C146.61 30.9127 147.509 31.1893 148.685 31.1893C149.238 31.1893 149.722 31.1202 150.206 30.9127V27.8007H148.685V27.7315Z" fill="#697A89"/>
<path d="M156.569 23.2363C156.638 23.2363 156.707 23.2363 156.707 23.3055V31.535C156.707 31.6042 156.638 31.6042 156.569 31.6042H156.154C156.085 31.6042 156.085 31.6042 156.085 31.535V23.3746C156.085 23.3055 156.085 23.3055 156.154 23.3055H156.569V23.2363Z" fill="#697A89"/>
<path d="M162.585 27.3165V31.3276C162.585 31.3967 162.585 31.535 162.378 31.6042C161.963 31.7425 160.787 31.8117 160.096 31.8117C158.574 31.8117 158.021 31.3967 158.021 30.0136C158.021 28.838 158.574 28.423 159.819 28.423H161.894V27.4548C161.894 26.4175 161.133 26.1409 160.027 26.1409H158.644C158.574 26.1409 158.574 26.1409 158.574 26.0717V25.7951C158.574 25.7259 158.574 25.7259 158.644 25.6568C159.197 25.5876 159.681 25.5876 160.096 25.5876C161.548 25.5185 162.585 25.8643 162.585 27.3165ZM159.888 28.9071C158.989 28.9071 158.644 29.2529 158.644 30.0136C158.644 30.9126 158.989 31.2584 160.165 31.2584C160.511 31.2584 161.479 31.2584 161.963 31.1201V28.9071H159.888Z" fill="#697A89"/>
<path d="M167.841 25.5878C167.91 25.5878 167.91 25.6569 167.91 25.6569V25.9336C167.91 26.0027 167.91 26.0027 167.841 26.0027H165.836C165.352 26.0027 164.66 26.141 164.66 26.7634V26.9709C164.66 27.455 164.798 27.7316 165.421 28.0082L167.15 28.6998C168.049 29.0456 168.187 29.5297 168.187 30.1521V30.2904C168.187 31.3969 167.565 31.6735 166.043 31.6735C165.49 31.6735 164.453 31.6735 164.107 31.6043C164.038 31.6043 164.038 31.5352 164.038 31.5352V31.2585C164.038 31.1894 164.107 31.1202 164.107 31.1202H166.043C167.219 31.1202 167.634 30.9819 167.634 30.2904V30.1521C167.634 29.7371 167.495 29.4605 166.942 29.253L165.144 28.4923C164.314 28.1465 164.107 27.6624 164.107 26.9709V26.6943C164.107 25.5186 165.282 25.4495 166.043 25.4495C166.32 25.5186 167.288 25.5186 167.841 25.5878Z" fill="#697A89"/>
<path d="M174.134 28.3539V28.6997C174.134 28.838 174.134 28.9072 173.858 28.9072H169.985C169.985 30.7052 170.331 31.1893 171.783 31.1893H173.443C173.512 31.1893 173.581 31.2585 173.581 31.3276V31.6043C173.581 31.6734 173.581 31.6734 173.512 31.6734C173.028 31.7426 172.198 31.7426 171.783 31.7426C169.778 31.7426 169.432 31.1202 169.432 28.6306C169.432 26.141 169.847 25.5186 171.783 25.5186C173.65 25.5186 174.065 26.0718 174.134 28.3539ZM169.985 28.3539H173.512C173.512 26.4867 173.166 26.0718 171.783 26.0718C170.331 26.0718 169.985 26.5559 169.985 28.3539Z" fill="#697A89"/>
<path d="M178.145 25.5876C178.215 25.5876 178.215 25.6568 178.215 25.7259V26.0026C178.215 26.0717 178.145 26.1409 178.076 26.0717H177.039C176.624 26.0717 176.071 26.1409 176.071 26.7633V31.6042C176.071 31.6733 176.071 31.6733 176.002 31.6733H175.656C175.587 31.6733 175.587 31.6733 175.587 31.6042V26.6941C175.587 25.5876 176.693 25.5876 177.039 25.5876C177.316 25.5185 177.938 25.5876 178.145 25.5876Z" fill="#697A89"/>
<path d="M185.683 25.5878C185.753 25.5878 185.753 25.6569 185.753 25.6569V25.9336C185.753 26.0027 185.683 26.0027 185.614 26.0027H183.955C182.433 26.0027 182.156 26.556 182.156 28.5615C182.156 30.6362 182.433 31.1202 183.955 31.1202H185.614C185.683 31.1202 185.753 31.1894 185.753 31.2585V31.5352C185.753 31.6043 185.753 31.6043 185.683 31.6043C185.199 31.6735 184.369 31.6735 184.024 31.6735C182.018 31.6735 181.603 31.0511 181.603 28.5615C181.603 26.0719 182.087 25.4495 184.024 25.4495C184.439 25.5186 185.268 25.5186 185.683 25.5878Z" fill="#697A89"/>
<path d="M191.631 28.3539V28.6997C191.631 28.838 191.631 28.9072 191.354 28.9072H187.481C187.481 30.7052 187.827 31.1893 189.28 31.1893H190.939C191.008 31.1893 191.078 31.2585 191.078 31.3276V31.6043C191.078 31.6734 191.078 31.6734 191.008 31.6734C190.524 31.7426 189.694 31.7426 189.28 31.7426C187.274 31.7426 186.859 31.1202 186.859 28.6306C186.859 26.141 187.274 25.5186 189.28 25.5186C191.147 25.5186 191.631 26.0718 191.631 28.3539ZM187.551 28.3539H191.078C191.078 26.4867 190.732 26.0718 189.349 26.0718C187.827 26.0718 187.551 26.5559 187.551 28.3539Z" fill="#697A89"/>
<path d="M197.855 28.0082V31.5351C197.855 31.6043 197.786 31.6043 197.717 31.6043H197.302C197.232 31.6043 197.232 31.6043 197.232 31.5351V28.0082C197.232 26.2101 196.748 26.0718 195.573 26.0718H193.706V31.6043C193.706 31.6734 193.706 31.6734 193.636 31.6734H193.221C193.152 31.6734 193.152 31.6734 193.152 31.6043V25.7952C193.152 25.726 193.152 25.726 193.291 25.6569C194.12 25.5186 194.95 25.5186 195.573 25.5186C197.163 25.5186 197.855 25.7952 197.855 28.0082Z" fill="#697A89"/>
<path d="M200.344 23.8589C200.414 23.8589 200.483 23.8589 200.483 23.928V25.5878H201.797C201.866 25.5878 201.935 25.5878 201.935 25.6569V25.9336C201.935 26.0027 201.866 26.0027 201.797 26.0027H200.483V30.4287C200.483 30.9819 200.621 31.0511 201.244 31.0511H201.935C202.004 31.0511 202.073 31.0511 202.073 31.1203V31.3969C202.073 31.466 202.073 31.466 202.004 31.5352C201.797 31.6043 201.382 31.6043 201.313 31.6043C200.483 31.6043 199.93 31.466 199.93 30.4978V25.9336H199.169C199.1 25.9336 199.031 25.8644 199.031 25.8644V25.5878C199.031 25.5186 199.1 25.5186 199.169 25.5186H199.791V23.9972C199.791 23.928 199.791 23.928 199.86 23.8589H200.344Z" fill="#697A89"/>
<path d="M207.606 28.3539V28.6997C207.606 28.838 207.606 28.9072 207.329 28.9072H203.456C203.456 30.7052 203.802 31.1893 205.255 31.1893H206.914C206.983 31.1893 207.053 31.2585 207.053 31.3276V31.6043C207.053 31.6734 207.053 31.6734 206.983 31.6734C206.499 31.7426 205.669 31.7426 205.255 31.7426C203.249 31.7426 202.834 31.1202 202.834 28.6306C202.834 26.141 203.249 25.5186 205.255 25.5186C207.122 25.5186 207.606 26.0718 207.606 28.3539ZM203.526 28.3539H207.053C207.053 26.4867 206.707 26.0718 205.324 26.0718C203.802 26.0718 203.526 26.5559 203.526 28.3539Z" fill="#697A89"/>
<path d="M211.617 25.5876C211.686 25.5876 211.686 25.6568 211.686 25.7259V26.0026C211.686 26.0717 211.617 26.1409 211.548 26.0717H210.51C210.095 26.0717 209.542 26.1409 209.542 26.7633V31.6042C209.542 31.6733 209.542 31.6733 209.473 31.6733H209.058C208.989 31.6733 208.989 31.6733 208.989 31.6042V26.6941C208.989 25.5876 210.095 25.5876 210.441 25.5876C210.787 25.5185 211.409 25.5876 211.617 25.5876Z" fill="#697A89"/>
<path d="M58.575 37.4133H58.2292C57.8143 37.4133 57.676 37.275 57.5377 36.9292L51.7286 19.7786H39.3497L40.1104 17.4273H50.9679L47.3026 6.63895C46.1269 2.97369 45.8503 2.62791 43.8448 2.62791C41.9776 2.62791 41.701 2.97369 40.4562 6.63895L30.2211 36.9292C30.0136 37.3441 29.8753 37.4133 29.4604 37.4133H1.17565C0.0691564 37.4133 0 36.7217 0 36.4451V1.17564C0 0.829858 0.345779 0.553233 0.691558 0.553233H1.65974C2.07468 0.553233 2.3513 0.829858 2.3513 1.17564V35.062H27.6623L37.5516 6.0857C39.2114 1.17564 39.7646 0.276611 43.7065 0.276611C47.7867 0.276611 48.4091 1.17564 49.9997 6.0857L53.8724 17.4964H77.9386C84.301 17.4964 87.1364 16.5282 87.1364 10.65C87.1364 4.01103 82.5029 2.69707 74.9649 2.69707H63.8308V11.8948L61.4104 9.61265V1.03732C61.4104 0.622389 61.687 0.414921 62.1019 0.414921C65.3523 0.345765 73.0977 0.276611 74.9649 0.276611C84.0243 0.276611 90.0409 2.00551 90.0409 10.5808C90.0409 14.9376 88.5886 17.6347 85.6841 18.6721C89.3493 19.6402 91.2166 22.6139 91.2166 27.4549C91.2166 35.961 85.4075 37.6899 76.763 37.6899L58.575 37.4133ZM77.2471 35.2003C84.0935 35.2003 88.3812 33.8863 88.3812 27.3857C88.3812 21.9224 85.7532 19.7786 78.976 19.7786H54.7714L59.889 35.062L77.2471 35.2003Z" fill="#697A89"/>
</svg>
